# xmcd
#
# Track frame offsets: 
#        150
#        20028
#        41352
#        66840
#        87103
#        110544
#        130001
#        148852
#        168214
#        196146
#        219689
#        245293
#        272720
#        316004
#        350437
#
# Disc length: 4841 seconds
#
# Revision: 0
# Processed by: cddbd v1.5.2PL0 Copyright (c) Steve Scherf et al.
# Submitted via: ExactAudioCopy v1.0b6
#
DISCID=d312e70f
DTITLE=麗蘭 - Best Selection
DYEAR=2013
DGENRE=Blues
TTITLE0=ミッドナイト・ブギ
TTITLE1=待ちわびるサンセット
TTITLE2=マンボのボーイフレンド
TTITLE3=Blue Blue
TTITLE4=天の川サーフ
TTITLE5=霧のスプートニク (instrumental)
TTITLE6=夏の色調<いろあい>
TTITLE7=光るゼブラのブギー
TTITLE8=ミュージック
TTITLE9=おいしい水
TTITLE10=Blues イン 回転木馬 (Bootleg version)
TTITLE11=あこがれの Southern Man
TTITLE12=R&R Tonight
TTITLE13=Get Back
TTITLE14=Eden. (instrumental)
EXTD=
EXTT0=
EXTT1=
EXTT2=
EXTT3=
EXTT4=
EXTT5=
EXTT6=
EXTT7=
EXTT8=
EXTT9=
EXTT10=
EXTT11=
EXTT12=
EXTT13=
EXTT14=
PLAYORDER=
